<svg width="512" height="512" viewBox="0 0 512 512" fill="none" xmlns="http://www.w3.org/2000/svg">
<rect width="512" height="512" rx="100" fill="white"/>
<path d="M469.342 258.237C469.342 300.432 456.83 341.679 433.388 376.763C409.945 411.847 376.626 439.192 337.643 455.339C298.659 471.487 255.763 475.711 214.379 467.48C172.995 459.248 134.981 438.929 105.144 409.092C75.3078 379.256 54.9889 341.242 46.757 299.858C38.5251 258.473 42.75 215.577 58.8974 176.594C75.0448 137.611 102.389 104.291 137.473 80.849C172.557 57.4066 213.805 44.8943 256 44.8943C284.017 44.8943 311.759 50.4125 337.643 61.134C363.526 71.8555 387.045 87.5701 406.856 107.381C426.666 127.191 442.381 150.71 453.103 176.594C463.824 202.478 469.342 230.22 469.342 258.237ZM370.526 153.357C370.519 151.094 369.617 148.925 368.016 147.325C366.416 145.725 364.247 144.822 361.984 144.815H150.717C148.458 144.829 146.296 145.735 144.702 147.334C143.107 148.934 142.208 151.099 142.201 153.357V303.266C142.201 366.322 256.35 401.839 256.35 401.839C256.35 401.839 370.526 366.322 370.526 303.266V153.357ZM325.928 244.278V272.896C325.921 275.35 324.941 277.701 323.204 279.433C321.466 281.166 319.112 282.139 316.659 282.139H279.929V318.895C279.929 321.349 278.956 323.703 277.224 325.44C275.491 327.178 273.14 328.158 270.686 328.165H242.095C239.637 328.165 237.279 327.188 235.54 325.45C233.802 323.711 232.825 321.354 232.825 318.895V282.139H196.069C193.62 282.132 191.273 281.156 189.541 279.424C187.809 277.692 186.833 275.345 186.826 272.896V244.278C186.833 241.829 187.809 239.482 189.541 237.75C191.273 236.018 193.62 235.042 196.069 235.035H232.825V198.279C232.832 195.825 233.812 193.474 235.55 191.741C237.288 190.009 239.641 189.036 242.095 189.036H270.686C273.136 189.043 275.482 190.019 277.214 191.751C278.946 193.483 279.922 195.83 279.929 198.279V235.035H316.685C319.139 235.035 321.493 236.008 323.231 237.74C324.968 239.473 325.921 241.824 325.928 244.278Z" fill="url(#paint0_linear_4_2)"/>
<defs>
<linearGradient id="paint0_linear_4_2" x1="42.6576" y1="258.237" x2="469.342" y2="258.237" gradientUnits="userSpaceOnUse">
<stop stop-color="#231A1B"/>
<stop offset="1" stop-color="#CEA28F"/>
</linearGradient>
</defs>
</svg>
